PathFileType	4	(X/Y/Z)	C:/Users/beibeiliu/ov580/test_trc\sequence.20_training_dense_right.trc
DataRate	CameraRate	NumFrames	NumMarkers	Units	OrigDataRate	OrigDataStartFrame	OrigNumFrames
120	120	23	19	mm	120	1	43
Frame#	Time	ThumbCMC			ThumbMCP			ThumbIP			ThumbTip			IndexMCP			IndexPIP			IndexTip			MiddleMCP			MiddlePIP			MiddleTip			RingMCP			RingPIP			RingTip			PinkyMCP			PinkyPIP			PinkyTip			BackHand1			BackHand2			BackHand3	
		X0	Y0	Z0	X1	Y1	Z1	X2	Y2	Z2	X3	Y3	Z3	X4	Y4	Z4	X5	Y5	Z5	X6	Y6	Z6	X7	Y7	Z7	X8	Y8	Z8	X9	Y9	Z9	X10	Y10	Z10	X11	Y11	Z11	X12	Y12	Z12	X13	Y13	Z13	X14	Y14	Z14	X15	Y15	Z15	X16	Y16	Z16	X17	Y17	Z17	X18	Y18	Z18	
0	0	133.058	27.7618	121.272	127.395	17.1046	85.15	148.629	5.81231	64.6788	173.732	-5.57601	69.0152	165.56	43.0691	56.1132	163.914	40.6032	27.964	164.289	42.3386	6.90137	193.662	30.4115	59.7979	197.902	30.8139	34.7887	210.308	29.0007	8.49319	205.277	12.9798	67.7329	216.224	8.55807	45.6424	230.009	3.70339	22.6178	211.975	-6.03905	83.8194	225.612	-14.7768	70.3062	244.232	-19.2648	61.2563	193.104	21.7068	115.832	185.302	25.5308	145.962	166.229	42.9262	124.047	
1	0.00833333	118.575	13.8715	118.264	114.285	-5.62683	95.055	136.771	-18.6996	73.7395	160.678	-27.5627	75.113	142.423	15.0664	53.5409	137.022	7.72402	27.4738	140.07	-0.769868	3.7746	169.01	8.11438	56.3485	174.381	-0.725876	28.0485	184.057	-8.11974	4.0572	186.303	-5.41308	64.1346	198.953	-16.9233	50.5383	207.475	-24.4226	23.6201	197.07	-19.0791	86.8752	212.32	-30.6828	73.3338	228.42	-36.55	58.3411	177.652	13.6907	113.011	172.12	23.1149	141.788	149.865	33.8095	115.615	
2	0.0166667	105.625	1.65646	127.102	104.59	-24.0474	103.33	122.628	-40.9408	83.7212	148.925	-44.9733	88.0074	125.231	-12.1146	56.5229	116.635	-22.6859	37.2605	118.749	-35.6101	14.6434	152.238	-21.0937	53.7736	153.545	-33.7845	33.1466	161.451	-47.6484	9.16547	172.161	-30.3975	69.1483	177.31	-43.1158	53.621	186.578	-57.8212	31.5289	185.246	-37.2443	88.976	195.626	-52.1505	80.3459	209.844	-60.2891	66.2876	167.447	0.0850779	110.278	166.574	14.5633	135.734	139.684	20.279	114.117	
3	0.025	100.106	0.11518	129.304	90.4583	-26.3765	112.174	109.237	-47.9543	93.4193	134.501	-57.723	95.9499	109.625	-23.3337	64.4156	98.5761	-39.6144	43.2849	98.8866	-53.4989	24.3091	138.785	-39.2402	62.1227	135.26	-56.8481	41.8289	136.603	-72.9685	22.0842	154.094	-48.2525	71.6875	157.686	-66.3277	57.2138	158.629	-83.0048	39.1855	168.526	-54.1883	94.1807	173.242	-70.7126	86.723	187.506	-87.125	69.8086	158.105	-9.54886	108.997	161.047	6.27338	136.734	131.437	11.0453	110.587	
4	0.0333333	102.924	14.373	131.583	86.3473	-8.13234	116.977	93.0879	-33.735	98.4384	115.864	-51.7338	101.403	101.505	-16.0937	65.744	87.0431	-23.9705	50.5559	80.6155	-40.2716	31.4644	120.473	-33.012	67.8789	109.686	-53.1187	47.4566	104.227	-67.3573	29.144	134.02	-48.7353	79.9184	127	-68.713	60.9436	123.475	-86.7898	43.2241	147.315	-61.1736	100.455	144.376	-81.5204	87.3152	149.588	-99.0903	74.1422	154.316	-14.6233	114.332	166.314	-1.70809	137.583	140.213	11.4875	117.323	
5	0.0416667	116.542	31.8804	131.538	93.8207	18.8029	118.019	87.5919	-3.10189	102.29	99.0807	-28.7282	101.426	103.248	9.41085	67.3114	87.325	0.39332	48.513	71.5435	-2.33383	28.0181	113.955	-18.9107	68.1513	98.1917	-30.8938	50.0357	83.761	-39.7099	30.4805	117.22	-37.2277	76.4622	107.216	-53.1641	63.7916	93.1473	-63.3747	46.2548	124.681	-56.7707	98.0206	114.996	-67.2129	88.8081	114.481	-90.093	73.1483	151.31	-19.4468	113.572	164.523	-6.75023	135.67	147.842	14.072	114.541	
6	0.05	134.549	43.7167	130.885	107.452	45.4729	113.055	93.0588	23.1052	93.7721	93.9217	-5.41304	95.1641	117.188	29.0379	63.7448	100.496	33.4555	43.5962	86.2156	26.477	24.0203	116.616	2.34335	62.6492	98.5934	-3.03009	44.5301	81.6812	-9.17899	22.9579	112.739	-22.6811	73.4018	97.5828	-30.8795	59.1123	82.3974	-37.7353	41.0757	112.274	-36.5624	94.9199	96.6223	-50.967	85.1528	89.37	-68.1643	68.8741	150.754	-10.974	112.597	164.895	-5.60589	136.295	157.344	19.8839	113.895	
7	0.0583333	154.294	47.493	132.557	128.955	53.3291	108.119	112.257	35.426	88.7877	106.033	5.93272	88.0426	142.099	37.5525	59.2178	126.5	42.1484	37.0364	116.413	44.4107	14.4076	130.486	8.62242	57.491	115.446	9.94198	36.7758	99.2079	5.67385	11.0965	119.376	-13.2488	68.3759	104.382	-18.1518	51.3537	92.4118	-17.6747	31.2111	114.14	-25.5155	90.5409	98.3256	-31.6274	78.8024	87.0908	-49.7848	63.2069	154.414	-11.5693	107.241	168.686	-11.1511	138.4	173.275	17.8132	116.147	
8	0.0666667	174.738	32.9814	127.254	155.548	45.7743	103.318	140.122	30.9149	83.918	126.797	5.75322	79.5493	173.378	23.096	56.7681	167.854	31.2572	34.6318	161.441	31.814	13.6551	157.589	-2.19754	56.2372	145.712	1.41661	29.776	138.088	2.11561	9.00428	142.887	-16.2735	67.2369	128.982	-17.8185	46.9227	115.749	-19.8748	20.7211	124.753	-27.6934	84.8461	110.212	-28.7741	68.9042	96.139	-42.5817	57.7649	163.256	-25.6491	111.347	170.919	-25.4107	139.798	187.498	-0.809081	121.528	
9	0.075	195.449	17.0347	133.228	178.57	26.7703	101.585	164.929	13.7083	79.9329	149.149	-11.1209	73.576	198.965	-4.88707	60.4596	199.532	4.64446	40.5583	195.21	4.44699	12.4984	183.054	-23.6651	56.9045	173.862	-22.8043	31.7017	169.872	-23.2265	8.78327	161.347	-35.899	69.7389	151.707	-35.9821	47.0932	141.864	-36.6303	20.9964	137.985	-42.2203	85.8316	126.712	-41.9462	68.3086	115.738	-51.6601	50.8749	176.989	-37.6994	118.565	178.051	-40.4389	144.77	201.217	-23.9921	129.001	
10	0.0833333	207.153	0.261519	135.529	198.188	11.7313	102.295	186.189	1.68616	77.4998	170.167	-21.7296	69.8986	219.57	-24.9617	72.1464	222.206	-20.0942	43.282	219.009	-26.2092	21.697	199.315	-45.2299	65.6196	194.44	-48.09	42.5213	192.28	-50.4449	15.1711	176.718	-55.2264	72.1088	170.377	-56.929	51.3865	164.261	-58.7298	25.5421	152.724	-57.7122	89.0845	144.746	-58.4383	69.838	133.533	-69.6141	48.4564	188.524	-52.2633	127.455	188.968	-52.2096	155.955	211.184	-35.3523	137.339	
11	0.0916667	214.983	1.89777	144.356	210.222	8.64118	113.484	207.23	2.76103	80.9035	196.872	-14.5792	62.8506	237.119	-29.7405	79.0116	240.27	-32.1353	53.2431	243.218	-37.6916	28.8974	222.324	-52.3512	78.3429	220.845	-61.0217	50.7891	223.581	-65.9749	24.8967	201.383	-67.6747	81.7601	196.25	-73.8993	60.0215	194.646	-77.911	31.2754	180.896	-73.0408	92.0711	170.823	-81.7638	72.9739	162.5	-92.3928	53.6031	204.178	-60.6066	131.157	202.337	-54.5419	162.13	226.113	-33.9877	141.28	
12	0.1	214.386	15.0982	144.885	210.123	22.7648	117.567	213.314	29.4447	92.5062	214.919	23.9103	66.59	247.747	-15.9787	81.9132	251.178	-19.8329	58.7443	257.79	-22.6118	39.2915	241.945	-43.8568	80.7301	242.895	-55.9805	56.4633	248.626	-63.1483	33.8311	226.183	-62.8905	88.245	225.701	-76.2889	65.8765	230.168	-80.7921	40.9143	207.231	-76.7205	102.227	205.92	-88.0867	82.7196	204.048	-102.345	61.3893	222.686	-50.0024	138.158	214.172	-44.1177	165.575	232.996	-18.9131	149.423	
13	0.108333	208.191	20.3449	139.413	202.32	34.2565	115.476	206.457	43.4629	92.2688	207.862	50.971	71.3471	243.542	-3.88615	80.6714	249.841	-5.34702	55.6397	259.916	-7.92908	31.4976	246.425	-33.1668	84.3391	252.64	-41.172	60.1304	263.372	-51.2064	33.267	239.212	-55.0044	88.7606	243.721	-60.6254	68.8197	249.482	-73.4747	48.802	223.926	-69.039	108.032	228.772	-85.1721	87.5318	235.304	-97.7785	72.8793	230.368	-35.4759	139.693	223.581	-31.9468	163.723	233.063	-2.43145	146.015	
14	0.116667	192.878	27.5741	133.964	182.969	41.1753	113.064	184.796	49.3072	88.2597	185.548	60.3214	64.6615	231.123	12.3074	69.8853	235.119	9.01116	45.8444	242.711	10.1855	25.9732	241.485	-14.0237	74.962	249.061	-24.9777	54.9287	261.047	-30.9388	28.0331	241.876	-40.4486	85.7814	250.304	-49.1052	63.1583	259.101	-57.0442	40.7884	233.056	-56.3235	103.85	241.382	-72.4485	90.9558	255.756	-86.4389	72.8324	231.689	-24.8382	134.168	224.077	-16.0162	160.577	222.862	9.03869	135.603	
15	0.125	172.239	25.6813	128.298	160.11	30.5713	107.143	156.406	40.3278	83.0806	153.579	46.9084	62.5736	208.069	17.4173	63.4431	210.378	16.0236	37.8252	217.62	17.1388	17.1792	228.583	-5.67644	66.0221	235.736	-10.7468	42.1705	246.324	-15.2407	20.5741	235.594	-24.1286	77.0189	246.287	-36.184	62.1674	256.653	-42.8522	36.5867	236.563	-45.2934	99.2305	246.981	-58.1371	85.7491	264.117	-67.2445	70.4189	227.238	-12.8136	129.56	220.929	-7.74819	153.755	205.417	16.2454	131.817	
16	0.133333	151.185	10.4247	126.097	135.077	12.8148	102.364	131.713	15.1276	75.2941	123.386	19.6008	55.206	181.852	8.63837	56.5288	181.873	6.38362	32.9601	192.261	3.89195	8.51232	206.875	-4.23981	62.5931	214.424	-11.5601	38.6477	228.217	-18.7651	16.0374	219.764	-19.6672	75.7471	232.61	-29.2607	52.4168	242.94	-35.0188	28.7505	229.82	-36.4093	97.3889	243.553	-47.5865	78.2154	261.784	-52.7062	64.1478	211.787	-3.53637	123.085	206.305	1.88854	150.658	183.845	14.8481	126.114	
17	0.141667	126.35	-2.42487	121.661	113.991	-12.412	100.007	102.533	-14.6262	78.0633	95.4243	-17.0067	59.3823	156.356	-14.1053	52.7953	156.411	-21.4886	30.315	161.279	-26.6647	8.24639	185.15	-19.9014	56.3504	192.841	-29.4423	33.0707	200.087	-35.7087	9.29803	200.087	-25.8899	68.6479	215.563	-37.8861	49.1281	220.97	-45.0704	28.2112	216.008	-34.0965	90.4628	231.422	-44.8843	77.36	250.658	-47.2673	66.9256	191.458	-2.15306	115.959	184.135	8.36645	143.949	155.563	9.06285	117.594	
18	0.15	102.754	-11.1021	126.51	90.8364	-26.8971	105.616	78.2913	-35.8401	86.4493	68.4863	-42.5763	68.0502	126.981	-39.0107	58.8555	128.316	-51.7304	39.4578	134.303	-62.6206	13.9329	156.88	-42.5953	56.2857	165.543	-55.7807	41.9352	175.93	-68.982	16.5692	180.309	-42.3498	74.3643	188.329	-55.7936	55.7663	196.842	-71.2324	33.2507	193.915	-42.9475	94.2227	209.73	-56.5585	78.4252	226.3	-61.2534	68.7661	165.617	-10.1805	108.421	160.161	3.82345	134.602	135.722	-0.850719	113.108	
19	0.158333	90.9256	-8.92311	127.207	77.6434	-24.3581	111.381	63.7175	-32.7345	95.0005	48.8156	-39.1421	77.5498	105.983	-46.6449	67.5806	101.496	-63.1493	47.5239	100.284	-76.3391	27.9837	137.825	-56.1166	63.2596	138.316	-73.5417	47.0126	141.866	-90.1617	24.3073	157.009	-59.2786	74.0546	159.397	-75.2045	58.9348	165.38	-95.3069	39.5479	170.978	-56.8641	96.7902	183.23	-73.1066	85.0602	196.793	-83.5878	66.0966	151.034	-18.4964	106.386	152.056	-0.260309	129.639	123.659	-2.31809	114.829	
20	0.166667	93.0998	6.21609	127.656	72.9173	1.3833	116.197	52.7672	-2.38027	95.2725	42.7668	-10.0306	78.6806	93.2353	-38.4768	68.7572	78.6649	-50.7698	52.5274	73.1814	-66.3795	34.4075	113.625	-50.3417	68.6082	109.968	-70.0776	53.6785	102.531	-90.2215	29.8152	131.503	-63.6122	77.9066	127.872	-82.6945	63.9889	129.154	-101.678	50.5249	151.135	-69.5767	100.388	152.062	-86.6152	92.6449	161.887	-102.033	76.4498	149.403	-21.2636	112.318	154.218	-2.52068	132.075	119.016	1.66326	110.786	
21	0.175	107.185	24.7774	126.339	85.6105	24.0549	112.401	67.3981	30.2053	92.401	55.1041	30.8876	79.7743	85.865	-18.3912	66.5092	71.9459	-23.4985	54.0872	57.4683	-38.1579	32.2234	100.395	-40.6047	67.9919	84.4054	-53.3474	51.709	74.1907	-69.8862	32.963	112.084	-60.4866	79.4615	101.859	-72.9996	69.5856	92.7166	-90.4971	52.2489	123.528	-72.6813	99.9038	115.053	-86.4477	92.3789	118.03	-102.701	77.6405	143.41	-22.4992	112.148	156.402	-11.0318	133.664	133.907	5.59674	114.134	
22	0.183333	131.433	37.2254	124.413	113.947	48.5007	112.538	98.4348	58.6824	87.5095	86.7274	66.8481	72.9796	96.344	9.7218	62.5156	78.3568	8.17403	47.4684	64.8221	1.51596	28.7871	99.3864	-20.3174	68.6637	79.4285	-27.157	51.7006	60.8454	-35.3632	28.9673	101.519	-40.659	80.2094	84.8053	-48.1221	65.0698	69.6088	-61.5471	48.2082	102.136	-54.5158	96.28	90.6196	-68.0077	92.3905	85.79	-81.719	73.9845	140.121	-22.9376	107.02	158.537	-14.0023	134.502	143.905	8.46611	110.613	
